<?xml version="1.0" standalone="no"?>
<!DOCTYPE svg PUBLIC "-//W3C//DTD SVG 20010904//EN"
 "http://www.w3.org/TR/2001/REC-SVG-20010904/DTD/svg10.dtd">
<svg version="1.0" xmlns="http://www.w3.org/2000/svg"
 width="669.000000pt" height="669.000000pt" viewBox="0 0 669.000000 669.000000"
 preserveAspectRatio="xMidYMid meet">
  <g transform="translate(0.000000,669.000000) scale(0.100000,-0.100000)"
     fill="#ffffff" stroke="none">
    <path d="M3430 5608 c83 -326 71 -539 -40 -722 -31 -51 -187 -229 -1100 -1255
    -212 -238 -391 -440 -398 -449 -11 -14 -26 -2 -127 98 -63 63 -115 120 -115
    126 0 12 114 143 576 664 1051 1186 987 1110 1053 1245 48 96 77 207 91 335 5
    52 10 101 10 109 0 32 12 -3 50 -151z m609 -139 c69 -230 84 -322 78 -489 -4
    -127 -8 -155 -32 -220 -15 -41 -50 -110 -79 -152 -28 -42 -256 -308 -507 -590
    -251 -282 -653 -736 -894 -1008 -240 -272 -446 -504 -457 -515 -19 -20 -20
    -20 -134 97 -63 65 -114 122 -114 128 0 12 141 174 605 700 158 179 367 415
    463 525 97 110 258 292 358 405 100 113 243 275 318 360 285 323 352 474 344
    780 -1 76 0 133 4 126 4 -7 25 -73 47 -147z m401 -1204 c-17 -85 -68 -189
    -131 -266 -30 -37 -205 -237 -390 -445 -453 -510 -1456 -1641 -1497 -1689
    l-34 -38 -119 119 c-66 65 -118 124 -117 131 4 16 234 280 1068 1222 80 91
    181 206 225 255 115 132 263 299 505 571 305 344 377 443 456 633 l39 93 3
    -263 c2 -168 -1 -285 -8 -323z m8 -715 c-3 -216 -6 -240 -27 -292 -32 -83 -85
    -156 -207 -293 -98 -109 -859 -970 -1215 -1374 -80 -91 -167 -188 -192 -216
    l-46 -50 -120 120 c-67 66 -121 122 -121 125 0 5 56 69 350 402 85 96 319 361
    520 589 201 227 461 521 579 654 287 322 350 409 446 614 l30 64 3 -54 c2 -30
    2 -160 0 -289z m310 -520 l-3 -225 -32 -65 c-41 -87 -37 -82 -363 -441 -373
    -410 -1226 -1353 -1265 -1397 l-30 -34 -88 91 c-49 51 -87 96 -85 100 3 9 186
    219 1146 1315 260 296 500 577 534 624 67 93 148 243 170 313 l13 44 3 -50 c2
    -27 2 -151 0 -275z"/>
  </g>
</svg>
